<svg width="1920" height="1080" viewBox="0 0 1920 1080" fill="none" xmlns="http://www.w3.org/2000/svg">
  <defs>
    <radialGradient id="g1" cx="0" cy="0" r="1" gradientUnits="userSpaceOnUse" gradientTransform="translate(1430 280) rotate(132.1) scale(820 620)">
      <stop stop-color="#B6A2FF" stop-opacity="0.72"/>
      <stop offset="1" stop-color="#B6A2FF" stop-opacity="0"/>
    </radialGradient>
    <linearGradient id="g2" x1="320" y1="940" x2="1680" y2="320" gradientUnits="userSpaceOnUse">
      <stop stop-color="#28E9DD" stop-opacity="0.2"/>
      <stop offset="1" stop-color="#8F75FF" stop-opacity="0.45"/>
    </linearGradient>
    <filter id="blur" x="560" y="90" width="930" height="920" filterUnits="userSpaceOnUse" color-interpolation-filters="sRGB">
      <feGaussianBlur stdDeviation="18"/>
    </filter>
  </defs>

  <rect width="1920" height="1080" fill="#04070F"/>
  <rect width="1920" height="1080" fill="url(#g1)"/>

  <g opacity="0.4">
    <path d="M0 1020L1920 260" stroke="url(#g2)" stroke-width="2"/>
    <path d="M0 920L1920 160" stroke="url(#g2)" stroke-width="2"/>
    <path d="M0 820L1920 60" stroke="url(#g2)" stroke-width="2"/>
  </g>

  <g filter="url(#blur)">
    <ellipse cx="1010" cy="560" rx="260" ry="360" fill="#AB89FF" fill-opacity="0.36"/>
  </g>

  <g opacity="0.82">
    <path d="M955 240C825 270 760 420 770 555C782 720 900 860 1050 846C1180 834 1258 700 1245 560C1232 405 1110 215 955 240Z" fill="#0B1022"/>
    <path d="M958 282C845 308 790 436 802 554C815 692 912 801 1038 790C1142 780 1208 676 1196 558C1184 431 1078 259 958 282Z" stroke="#AE8FFF" stroke-width="5"/>
    <path d="M950 336C868 356 829 450 838 543C848 637 917 714 1008 705C1083 697 1131 619 1122 545C1113 451 1038 315 950 336Z" stroke="#48EFE6" stroke-width="4"/>
    <path d="M948 380C890 394 862 464 869 536C876 608 925 665 989 659C1042 654 1076 595 1069 539C1062 467 1010 365 948 380Z" stroke="#7C7BFF" stroke-width="3"/>
  </g>

  <g>
    <rect x="650" y="770" width="730" height="110" rx="24" fill="#0A1427"/>
    <rect x="660" y="780" width="710" height="90" rx="20" stroke="#43F0E8" stroke-opacity="0.7" stroke-width="3"/>
    <rect x="680" y="800" width="670" height="50" rx="12" fill="#170C2E"/>
    <circle cx="710" cy="825" r="10" fill="#43F0E8"/>
    <circle cx="1210" cy="825" r="10" fill="#FF8A5B"/>
    <circle cx="1240" cy="825" r="10" fill="#43F0E8"/>
    <circle cx="1270" cy="825" r="10" fill="#43F0E8"/>
  </g>
</svg>
